<svg xmlns="http://www.w3.org/2000/svg" viewBox="0 0 32 40" width="32" height="40">
  <!-- 농부 · 해는 왼쪽 위 (맵 조명과 동일) -->
  <ellipse cx="18" cy="36.5" rx="7.5" ry="2.4" fill="#000814" opacity=".3"/>
  <!-- 다리 -->
  <path d="M12.6 30h2.9v6.2h-2.9z" fill="#5b4a33"/>
  <path d="M16.9 30h2.9v6.2h-2.9z" fill="#4a3b28"/>
  <path d="M11.8 35.4h4.3v1.6h-4.3z" fill="#3a2c1c"/>
  <path d="M16.1 35.4h4.4v1.6h-4.4z" fill="#2f2417"/>
  <!-- 몸통 (왼쪽 밝고 오른쪽 그늘) -->
  <path d="M10 31V22a6 6 0 0 1 12 0v9z" fill="#6aa85f"/>
  <path d="M22 31V22a6 6 0 0 0-6-6v15z" fill="#000" opacity=".2"/>
  <path d="M10 31V22a6 6 0 0 1 3-5.2V31z" fill="#fff" opacity=".16"/>
  <!-- 멜빵 -->
  <path d="M13.2 17.4h1.5V31h-1.5zM17.3 17.4h1.5V31h-1.5z" fill="#8a6b3f" opacity=".85"/>
  <!-- 팔 -->
  <path d="M8.6 20.6a2 2 0 0 1 3.2-1.4l1 1.4-2.4 2.4z" fill="#6aa85f"/>
  <path d="M23.4 20.6a2 2 0 0 0-3.2-1.4l-1 1.4 2.4 2.4z" fill="#5c9452"/>
  <circle cx="9.4" cy="23" r="1.7" fill="#f0c9a0"/>
  <circle cx="22.6" cy="23" r="1.7" fill="#dcb086"/>
  <!-- 낫 -->
  <path d="M23.2 24.4 24.6 12" stroke="#8a5a3b" stroke-width="1.5" stroke-linecap="round"/>
  <path d="M24.6 12.4c2.6.2 4.2 1.8 4.4 4.2-1.8-1.9-3-2.6-4.6-2.6z" fill="#cdd4dd"/>
  <!-- 머리 -->
  <circle cx="16" cy="12.6" r="5.4" fill="#f0c9a0"/>
  <path d="M16 7.2a5.4 5.4 0 0 1 0 10.8z" fill="#000" opacity=".12"/>
  <circle cx="14.1" cy="12.9" r=".8" fill="#3a2a1c"/>
  <circle cx="18" cy="12.9" r=".8" fill="#3a2a1c"/>
  <path d="M14.6 15.1q1.4 1.1 2.9 0" stroke="#a9744c" stroke-width=".8" fill="none" stroke-linecap="round"/>
  <!-- 밀짚모자 -->
  <ellipse cx="16" cy="9.2" rx="10" ry="2.9" fill="#e0b45c"/>
  <ellipse cx="16" cy="9.2" rx="10" ry="2.9" fill="url(#fLit)" opacity=".55"/>
  <path d="M10.9 8.6a5.2 5.2 0 0 1 10.2 0z" fill="#f0c874"/>
  <path d="M16 3.5a5.2 5.2 0 0 1 5.1 5.1H16z" fill="#c99a45"/>
  <path d="M11.2 8.2h9.6v1.1h-9.6z" fill="#8a5a3b" opacity=".75"/>
  <defs>
    <linearGradient id="fLit" x1="0" y1="0" x2="1" y2=".4">
      <stop offset="0" stop-color="#fff6dc" stop-opacity=".5"/>
      <stop offset="1" stop-color="#000000" stop-opacity=".35"/>
    </linearGradient>
  </defs>
</svg>
